<svg xmlns="http://www.w3.org/2000/svg" xmlns:xlink="http://www.w3.org/1999/xlink" width="500" zoomAndPan="magnify" viewBox="0 0 375 374.999991" height="500" preserveAspectRatio="xMidYMid meet" version="1.0"><defs><g/><clipPath id="065797458c"><path d="M 17.285156 131.511719 L 181.535156 131.511719 L 181.535156 243.261719 L 17.285156 243.261719 Z M 17.285156 131.511719 " clip-rule="nonzero"/></clipPath><clipPath id="b3d919dbeb"><path d="M 70.785156 187.5 L 128.207031 187.5 L 128.207031 243.75 L 70.785156 243.75 Z M 70.785156 187.5 " clip-rule="nonzero"/></clipPath></defs><g clip-path="url(#065797458c)"><path fill="#be1c2d" d="M 181.507812 202.996094 L 181.507812 224.074219 C 181.507812 226.480469 179.5625 228.433594 177.15625 228.445312 C 177.144531 228.445312 177.132812 228.445312 177.117188 228.445312 L 162.855469 229.441406 C 162.546875 229.464844 162.289062 229.679688 162.210938 229.976562 C 161.023438 234.523438 159.355469 238.871094 157.261719 242.96875 C 157.261719 242.972656 157.261719 242.972656 157.257812 242.976562 C 157.054688 243.367188 156.550781 243.480469 156.199219 243.214844 L 143.085938 233.230469 C 142.828125 233.03125 142.734375 232.679688 142.863281 232.375 C 143.605469 230.671875 144.25 228.914062 144.789062 227.117188 C 145.480469 224.808594 146 222.429688 146.332031 219.992188 C 146.53125 218.53125 146.664062 217.050781 146.726562 215.550781 C 146.753906 214.882812 146.769531 214.210938 146.769531 213.53125 C 146.769531 212.238281 146.71875 210.953125 146.613281 209.679688 C 145.5 195.835938 138.421875 183.679688 127.949219 175.773438 C 120.03125 169.796875 110.175781 166.253906 99.492188 166.253906 C 73.378906 166.253906 52.214844 187.421875 52.214844 213.53125 C 52.214844 220.234375 53.605469 226.605469 56.117188 232.378906 C 56.25 232.679688 56.15625 233.03125 55.894531 233.230469 L 54.664062 234.167969 L 42.789062 243.207031 C 42.4375 243.476562 41.925781 243.363281 41.71875 242.96875 C 41.695312 242.921875 41.671875 242.871094 41.648438 242.824219 C 41.613281 242.761719 41.582031 242.699219 41.550781 242.632812 C 40.515625 240.578125 39.585938 238.460938 38.773438 236.285156 C 38.003906 234.230469 37.335938 232.128906 36.773438 229.976562 C 36.695312 229.679688 36.4375 229.464844 36.128906 229.441406 L 21.863281 228.445312 C 21.851562 228.445312 21.839844 228.445312 21.824219 228.445312 C 19.421875 228.433594 17.472656 226.480469 17.472656 224.074219 L 17.472656 202.996094 C 17.472656 200.585938 19.421875 198.632812 21.824219 198.625 C 21.839844 198.625 21.851562 198.621094 21.863281 198.621094 L 36.128906 197.625 C 36.4375 197.601562 36.695312 197.386719 36.773438 197.089844 C 38.285156 191.3125 40.570312 185.847656 43.519531 180.816406 C 43.671875 180.550781 43.644531 180.214844 43.441406 179.980469 L 34.054688 169.1875 C 34.046875 169.179688 34.039062 169.167969 34.03125 169.160156 C 32.335938 167.449219 32.339844 164.695312 34.042969 162.992188 L 48.949219 148.085938 C 50.652344 146.382812 53.410156 146.378906 55.117188 148.074219 C 55.125 148.082031 55.136719 148.089844 55.144531 148.097656 L 65.941406 157.484375 C 66.171875 157.683594 66.507812 157.714844 66.777344 157.558594 C 71.808594 154.613281 77.269531 152.324219 83.046875 150.8125 C 83.34375 150.734375 83.5625 150.476562 83.582031 150.167969 L 84.578125 135.90625 C 84.582031 135.894531 84.582031 135.878906 84.582031 135.867188 C 84.589844 133.460938 86.542969 131.515625 88.949219 131.515625 L 110.03125 131.515625 C 112.441406 131.515625 114.394531 133.460938 114.402344 135.867188 C 114.402344 135.878906 114.402344 135.894531 114.40625 135.90625 L 115.402344 150.167969 C 115.421875 150.476562 115.640625 150.734375 115.9375 150.8125 C 121.714844 152.324219 127.175781 154.613281 132.210938 157.558594 C 132.472656 157.714844 132.808594 157.683594 133.042969 157.484375 L 134.863281 155.902344 L 143.835938 148.097656 C 143.847656 148.089844 143.855469 148.082031 143.867188 148.074219 C 145.574219 146.378906 148.332031 146.382812 150.035156 148.085938 L 164.941406 162.992188 C 166.640625 164.695312 166.648438 167.449219 164.953125 169.160156 C 164.945312 169.167969 164.9375 169.179688 164.925781 169.1875 L 155.542969 179.980469 C 155.339844 180.214844 155.308594 180.550781 155.464844 180.816406 C 158.011719 185.164062 160.066406 189.832031 161.550781 194.746094 C 161.785156 195.523438 162.007812 196.300781 162.210938 197.089844 C 162.289062 197.386719 162.546875 197.601562 162.855469 197.625 L 164.96875 197.773438 L 166.734375 197.894531 L 172.019531 198.265625 L 177.117188 198.621094 C 177.132812 198.621094 177.144531 198.625 177.15625 198.625 C 179.5625 198.632812 181.507812 200.585938 181.507812 202.996094 " fill-opacity="1" fill-rule="nonzero"/></g><g clip-path="url(#b3d919dbeb)"><path fill="#be1c2d" d="M 121.023438 187.5 L 121.742188 188.933594 L 114.207031 193.242188 C 114.207031 196.828125 115.640625 199.699219 118.871094 201.496094 L 126.40625 197.1875 L 126.765625 197.90625 C 124.972656 203.289062 121.382812 206.878906 114.207031 206.878906 C 112.414062 206.878906 107.03125 212.261719 104.160156 215.132812 L 98.417969 209.390625 C 101.289062 206.519531 107.746094 200.058594 107.746094 198.265625 C 107.746094 191.804688 109.542969 187.5 121.023438 187.5 Z M 76.167969 189.292969 L 83.347656 194.316406 L 84.0625 197.1875 L 104.878906 218.003906 L 107.746094 216.207031 L 109.183594 217.644531 C 109.183594 221.949219 114.207031 224.101562 116.359375 224.101562 L 128.203125 235.945312 C 128.203125 239.53125 124.253906 243.480469 120.667969 243.480469 L 108.824219 231.636719 C 108.824219 229.484375 106.671875 224.460938 102.363281 224.460938 L 100.929688 223.027344 L 102.722656 220.15625 L 81.910156 199.34375 L 79.039062 198.625 L 74.015625 191.449219 Z M 94.113281 213.695312 L 99.851562 219.4375 C 95.546875 223.742188 89.804688 229.484375 89.804688 231.28125 C 89.804688 237.738281 88.011719 242.046875 76.527344 242.046875 L 75.808594 240.609375 L 83.347656 236.304688 C 83.347656 232.714844 81.910156 229.84375 78.679688 228.050781 L 71.144531 232.355469 L 70.785156 231.636719 C 72.582031 226.253906 76.167969 222.667969 83.347656 222.667969 C 85.140625 222.667969 89.804688 218.003906 94.113281 213.695312 Z M 94.113281 213.695312 " fill-opacity="1" fill-rule="nonzero"/></g><g fill="#202124" fill-opacity="1"><g transform="translate(195.271701, 198.602397)"><g><path d="M 13.78125 -24.53125 C 14.914062 -24.53125 15.859375 -24.460938 16.609375 -24.328125 C 17.367188 -24.203125 18.1875 -24.03125 19.0625 -23.8125 C 19.65625 -23.65625 20.007812 -23.566406 20.125 -23.546875 L 19.328125 -18.3125 C 18.765625 -18.6875 18.097656 -19.007812 17.328125 -19.28125 C 16.554688 -19.5625 15.535156 -19.703125 14.265625 -19.703125 C 13.015625 -19.703125 11.890625 -19.421875 10.890625 -18.859375 C 9.890625 -18.296875 9.097656 -17.46875 8.515625 -16.375 C 7.941406 -15.28125 7.65625 -13.972656 7.65625 -12.453125 C 7.65625 -10.835938 7.914062 -9.425781 8.4375 -8.21875 C 8.957031 -7.019531 9.734375 -6.085938 10.765625 -5.421875 C 11.796875 -4.765625 13.050781 -4.4375 14.53125 -4.4375 C 15.175781 -4.4375 15.851562 -4.515625 16.5625 -4.671875 C 17.28125 -4.828125 17.925781 -5.023438 18.5 -5.265625 C 19.082031 -5.515625 19.507812 -5.757812 19.78125 -6 L 19.796875 -1.015625 C 18.890625 -0.640625 17.976562 -0.332031 17.0625 -0.09375 C 16.15625 0.132812 15.082031 0.25 13.84375 0.25 C 11.207031 0.25 8.953125 -0.25 7.078125 -1.25 C 5.203125 -2.257812 3.78125 -3.691406 2.8125 -5.546875 C 1.84375 -7.398438 1.359375 -9.582031 1.359375 -12.09375 C 1.359375 -14.75 1.898438 -17.007812 2.984375 -18.875 C 4.066406 -20.738281 5.546875 -22.144531 7.421875 -23.09375 C 9.296875 -24.050781 11.414062 -24.53125 13.78125 -24.53125 Z M 13.78125 -24.53125 "/></g></g></g><g fill="#202124" fill-opacity="1"><g transform="translate(216.091108, 198.602397)"><g><path d="M 22.828125 0 L 16.140625 0 C 16.015625 -0.15625 15.898438 -0.332031 15.796875 -0.53125 C 15.691406 -0.726562 15.515625 -1.125 15.265625 -1.71875 C 14.960938 -2.40625 14.632812 -3.28125 14.28125 -4.34375 C 13.957031 -5.300781 13.675781 -6.054688 13.4375 -6.609375 C 13.207031 -7.171875 12.925781 -7.640625 12.59375 -8.015625 C 12.269531 -8.398438 11.890625 -8.609375 11.453125 -8.640625 C 10.847656 -8.597656 9.96875 -8.578125 8.8125 -8.578125 L 8.8125 0 L 2.765625 0 L 2.765625 -24.265625 L 4.84375 -24.265625 C 5.226562 -24.265625 6.023438 -24.296875 7.234375 -24.359375 C 7.410156 -24.367188 7.972656 -24.398438 8.921875 -24.453125 C 9.878906 -24.503906 10.957031 -24.53125 12.15625 -24.53125 C 13.75 -24.53125 15.21875 -24.296875 16.5625 -23.828125 C 17.914062 -23.359375 19.023438 -22.550781 19.890625 -21.40625 C 20.753906 -20.257812 21.1875 -18.734375 21.1875 -16.828125 C 21.1875 -13.367188 19.90625 -11.039062 17.34375 -9.84375 C 17.894531 -9.40625 18.375 -8.816406 18.78125 -8.078125 C 19.195312 -7.347656 19.691406 -6.328125 20.265625 -5.015625 C 20.597656 -4.253906 20.878906 -3.628906 21.109375 -3.140625 C 21.335938 -2.660156 21.578125 -2.195312 21.828125 -1.75 Z M 8.8125 -12.78125 C 9.125 -12.738281 9.59375 -12.707031 10.21875 -12.6875 C 10.851562 -12.664062 11.378906 -12.660156 11.796875 -12.671875 C 12.972656 -12.671875 13.859375 -13.046875 14.453125 -13.796875 C 15.054688 -14.546875 15.359375 -15.515625 15.359375 -16.703125 C 15.359375 -19.054688 14.039062 -20.234375 11.40625 -20.234375 C 10.375 -20.234375 9.507812 -20.140625 8.8125 -19.953125 Z M 8.8125 -12.78125 "/></g></g></g><g fill="#202124" fill-opacity="1"><g transform="translate(239.524897, 198.602397)"><g><path d="M 15.796875 -4.53125 L 7.328125 -4.53125 L 6.0625 0 L -0.296875 0 L 8.140625 -24.421875 L 15.0625 -24.421875 L 23.578125 0 L 17.140625 0 Z M 14.546875 -8.765625 L 12.296875 -16.375 L 11.5 -19.515625 L 10.6875 -16.375 L 8.53125 -8.765625 Z M 14.546875 -8.765625 "/></g></g></g><g fill="#202124" fill-opacity="1"><g transform="translate(262.799273, 198.602397)"><g><path d="M 17.90625 -24.265625 L 17.90625 -19.734375 L 8.8125 -19.734375 L 8.8125 -13.953125 L 15.71875 -13.953125 L 15.71875 -9.4375 L 8.8125 -9.4375 L 8.8125 0 L 2.765625 0 L 2.765625 -24.265625 Z M 17.90625 -24.265625 "/></g></g></g><g fill="#202124" fill-opacity="1"><g transform="translate(281.339067, 198.602397)"><g><path d="M 0.453125 -19.578125 L 0.453125 -24.265625 L 19.53125 -24.265625 L 19.53125 -19.578125 L 13.0625 -19.578125 L 13.0625 0 L 6.9375 0 L 6.9375 -19.578125 Z M 0.453125 -19.578125 "/></g></g></g><g fill="#202124" fill-opacity="1"><g transform="translate(301.313582, 198.602397)"><g><path d="M 18.09375 -24.265625 L 18.09375 -19.734375 L 8.765625 -19.734375 L 8.765625 -14.609375 L 15.96875 -14.609375 L 15.96875 -10.1875 L 8.765625 -10.1875 L 8.765625 -4.640625 L 19.0625 -4.640625 L 19.0625 0 L 2.765625 0 L 2.765625 -24.265625 Z M 18.09375 -24.265625 "/></g></g></g><g fill="#202124" fill-opacity="1"><g transform="translate(321.5591, 198.602397)"><g><path d="M 22.0625 0 L 15.34375 0 L 11.9375 -6.25 L 10.921875 -8.34375 L 9.921875 -6.25 L 6.640625 0 L 0.21875 0 L 7.40625 -12.421875 L 0.421875 -24.265625 L 7.09375 -24.28125 L 10.421875 -18.171875 L 11.390625 -16.328125 L 12.328125 -18.171875 L 15.46875 -24.265625 L 21.84375 -24.265625 L 14.796875 -12.0625 Z M 22.0625 0 "/></g></g></g><g fill="#202124" fill-opacity="1"><g transform="translate(227.683295, 222.643706)"><g><path d="M 1.6875 -2.828125 C 2.101562 -2.597656 2.601562 -2.398438 3.1875 -2.234375 C 3.78125 -2.078125 4.40625 -2 5.0625 -2 C 5.757812 -2 6.25 -2.101562 6.53125 -2.3125 C 6.820312 -2.53125 6.96875 -2.867188 6.96875 -3.328125 C 6.96875 -3.640625 6.894531 -3.898438 6.75 -4.109375 C 6.613281 -4.328125 6.375 -4.546875 6.03125 -4.765625 C 5.6875 -4.984375 5.15625 -5.269531 4.4375 -5.625 C 3.476562 -6.09375 2.695312 -6.644531 2.09375 -7.28125 C 1.488281 -7.914062 1.1875 -8.71875 1.1875 -9.6875 C 1.1875 -10.507812 1.390625 -11.179688 1.796875 -11.703125 C 2.203125 -12.222656 2.742188 -12.601562 3.421875 -12.84375 C 4.109375 -13.082031 4.882812 -13.203125 5.75 -13.203125 C 6.488281 -13.203125 7.160156 -13.117188 7.765625 -12.953125 C 8.378906 -12.796875 8.832031 -12.628906 9.125 -12.453125 L 8.671875 -10.328125 C 8.285156 -10.566406 7.863281 -10.765625 7.40625 -10.921875 C 6.945312 -11.078125 6.421875 -11.15625 5.828125 -11.15625 C 5.140625 -11.15625 4.640625 -11.039062 4.328125 -10.8125 C 4.023438 -10.582031 3.875 -10.25 3.875 -9.8125 C 3.875 -9.507812 3.945312 -9.25 4.09375 -9.03125 C 4.25 -8.820312 4.472656 -8.617188 4.765625 -8.421875 C 5.066406 -8.222656 5.519531 -7.960938 6.125 -7.640625 C 6.945312 -7.203125 7.601562 -6.8125 8.09375 -6.46875 C 8.582031 -6.125 8.972656 -5.707031 9.265625 -5.21875 C 9.566406 -4.738281 9.71875 -4.164062 9.71875 -3.5 C 9.71875 -2.738281 9.53125 -2.082031 9.15625 -1.53125 C 8.78125 -0.988281 8.253906 -0.570312 7.578125 -0.28125 C 6.898438 0 6.117188 0.140625 5.234375 0.140625 C 4.691406 0.140625 4.148438 0.0976562 3.609375 0.015625 C 3.078125 -0.0664062 2.601562 -0.164062 2.1875 -0.28125 C 1.769531 -0.40625 1.472656 -0.523438 1.296875 -0.640625 Z M 1.6875 -2.828125 "/></g></g></g><g fill="#202124" fill-opacity="1"><g transform="translate(238.042048, 222.643706)"><g><path d="M 1.296875 -13.0625 L 4.015625 -13.0625 L 3.984375 -5.75 C 3.984375 -4.757812 4.078125 -3.992188 4.265625 -3.453125 C 4.460938 -2.921875 4.75 -2.550781 5.125 -2.34375 C 5.5 -2.144531 5.984375 -2.046875 6.578125 -2.046875 C 7.160156 -2.046875 7.632812 -2.15625 8 -2.375 C 8.363281 -2.59375 8.640625 -2.972656 8.828125 -3.515625 C 9.023438 -4.054688 9.125 -4.800781 9.125 -5.75 L 9.125 -13.0625 L 11.8125 -13.0625 L 11.8125 -5.5 C 11.8125 -3.65625 11.363281 -2.253906 10.46875 -1.296875 C 9.570312 -0.335938 8.25 0.140625 6.5 0.140625 C 4.632812 0.140625 3.296875 -0.351562 2.484375 -1.34375 C 1.679688 -2.34375 1.28125 -3.765625 1.28125 -5.609375 Z M 1.296875 -13.0625 "/></g></g></g><g fill="#202124" fill-opacity="1"><g transform="translate(251.129951, 222.643706)"><g><path d="M 2.4375 -13.0625 C 2.957031 -13.0625 3.644531 -13.082031 4.5 -13.125 C 5.300781 -13.175781 5.898438 -13.203125 6.296875 -13.203125 C 7.847656 -13.203125 9.03125 -12.835938 9.84375 -12.109375 C 10.65625 -11.390625 11.0625 -10.25 11.0625 -8.6875 C 11.0625 -7.695312 10.859375 -6.847656 10.453125 -6.140625 C 10.054688 -5.429688 9.46875 -4.890625 8.6875 -4.515625 C 7.90625 -4.140625 6.957031 -3.953125 5.84375 -3.953125 C 5.238281 -3.953125 4.738281 -3.957031 4.34375 -3.96875 L 4.34375 0 L 1.609375 0 L 1.609375 -13.0625 Z M 5.765625 -6.03125 C 6.535156 -6.03125 7.15625 -6.234375 7.625 -6.640625 C 8.101562 -7.046875 8.34375 -7.742188 8.34375 -8.734375 C 8.34375 -9.554688 8.117188 -10.179688 7.671875 -10.609375 C 7.234375 -11.046875 6.585938 -11.25 5.734375 -11.21875 C 5.410156 -11.207031 5.144531 -11.191406 4.9375 -11.171875 C 4.726562 -11.160156 4.53125 -11.132812 4.34375 -11.09375 L 4.34375 -6.09375 C 4.71875 -6.050781 5.191406 -6.03125 5.765625 -6.03125 Z M 5.765625 -6.03125 "/></g></g></g><g fill="#202124" fill-opacity="1"><g transform="translate(262.793203, 222.643706)"><g><path d="M 2.4375 -13.0625 C 2.957031 -13.0625 3.644531 -13.082031 4.5 -13.125 C 5.300781 -13.175781 5.898438 -13.203125 6.296875 -13.203125 C 7.847656 -13.203125 9.03125 -12.835938 9.84375 -12.109375 C 10.65625 -11.390625 11.0625 -10.25 11.0625 -8.6875 C 11.0625 -7.695312 10.859375 -6.847656 10.453125 -6.140625 C 10.054688 -5.429688 9.46875 -4.890625 8.6875 -4.515625 C 7.90625 -4.140625 6.957031 -3.953125 5.84375 -3.953125 C 5.238281 -3.953125 4.738281 -3.957031 4.34375 -3.96875 L 4.34375 0 L 1.609375 0 L 1.609375 -13.0625 Z M 5.765625 -6.03125 C 6.535156 -6.03125 7.15625 -6.234375 7.625 -6.640625 C 8.101562 -7.046875 8.34375 -7.742188 8.34375 -8.734375 C 8.34375 -9.554688 8.117188 -10.179688 7.671875 -10.609375 C 7.234375 -11.046875 6.585938 -11.25 5.734375 -11.21875 C 5.410156 -11.207031 5.144531 -11.191406 4.9375 -11.171875 C 4.726562 -11.160156 4.53125 -11.132812 4.34375 -11.09375 L 4.34375 -6.09375 C 4.71875 -6.050781 5.191406 -6.03125 5.765625 -6.03125 Z M 5.765625 -6.03125 "/></g></g></g><g fill="#202124" fill-opacity="1"><g transform="translate(274.456455, 222.643706)"><g><path d="M 4.34375 -13.0625 L 4.34375 -2.078125 L 9.046875 -2.078125 L 9.046875 0 L 1.609375 0 L 1.609375 -13.0625 Z M 4.34375 -13.0625 "/></g></g></g><g fill="#202124" fill-opacity="1"><g transform="translate(284.068554, 222.643706)"><g><path d="M 4.46875 -13.0625 L 4.46875 0 L 1.71875 0 L 1.71875 -13.0625 Z M 4.46875 -13.0625 "/></g></g></g><g fill="#202124" fill-opacity="1"><g transform="translate(290.264925, 222.643706)"><g><path d="M 9.578125 -13.0625 L 9.578125 -10.96875 L 4.34375 -10.96875 L 4.34375 -7.71875 L 8.359375 -7.71875 L 8.359375 -5.65625 L 4.34375 -5.65625 L 4.34375 -2.15625 L 10.140625 -2.15625 L 10.140625 0 L 1.609375 0 L 1.609375 -13.0625 Z M 9.578125 -13.0625 "/></g></g></g><g fill="#202124" fill-opacity="1"><g transform="translate(301.027043, 222.643706)"><g><path d="M 1.6875 -2.828125 C 2.101562 -2.597656 2.601562 -2.398438 3.1875 -2.234375 C 3.78125 -2.078125 4.40625 -2 5.0625 -2 C 5.757812 -2 6.25 -2.101562 6.53125 -2.3125 C 6.820312 -2.53125 6.96875 -2.867188 6.96875 -3.328125 C 6.96875 -3.640625 6.894531 -3.898438 6.75 -4.109375 C 6.613281 -4.328125 6.375 -4.546875 6.03125 -4.765625 C 5.6875 -4.984375 5.15625 -5.269531 4.4375 -5.625 C 3.476562 -6.09375 2.695312 -6.644531 2.09375 -7.28125 C 1.488281 -7.914062 1.1875 -8.71875 1.1875 -9.6875 C 1.1875 -10.507812 1.390625 -11.179688 1.796875 -11.703125 C 2.203125 -12.222656 2.742188 -12.601562 3.421875 -12.84375 C 4.109375 -13.082031 4.882812 -13.203125 5.75 -13.203125 C 6.488281 -13.203125 7.160156 -13.117188 7.765625 -12.953125 C 8.378906 -12.796875 8.832031 -12.628906 9.125 -12.453125 L 8.671875 -10.328125 C 8.285156 -10.566406 7.863281 -10.765625 7.40625 -10.921875 C 6.945312 -11.078125 6.421875 -11.15625 5.828125 -11.15625 C 5.140625 -11.15625 4.640625 -11.039062 4.328125 -10.8125 C 4.023438 -10.582031 3.875 -10.25 3.875 -9.8125 C 3.875 -9.507812 3.945312 -9.25 4.09375 -9.03125 C 4.25 -8.820312 4.472656 -8.617188 4.765625 -8.421875 C 5.066406 -8.222656 5.519531 -7.960938 6.125 -7.640625 C 6.945312 -7.203125 7.601562 -6.8125 8.09375 -6.46875 C 8.582031 -6.125 8.972656 -5.707031 9.265625 -5.21875 C 9.566406 -4.738281 9.71875 -4.164062 9.71875 -3.5 C 9.71875 -2.738281 9.53125 -2.082031 9.15625 -1.53125 C 8.78125 -0.988281 8.253906 -0.570312 7.578125 -0.28125 C 6.898438 0 6.117188 0.140625 5.234375 0.140625 C 4.691406 0.140625 4.148438 0.0976562 3.609375 0.015625 C 3.078125 -0.0664062 2.601562 -0.164062 2.1875 -0.28125 C 1.769531 -0.40625 1.472656 -0.523438 1.296875 -0.640625 Z M 1.6875 -2.828125 "/></g></g></g></svg>