<svg xmlns="http://www.w3.org/2000/svg" xmlns:xlink="http://www.w3.org/1999/xlink" width="500" zoomAndPan="magnify" viewBox="0 0 375 374.999991" height="500" preserveAspectRatio="xMidYMid meet" version="1.0"><defs><g/><clipPath id="6b2a935b3d"><path d="M 56.707031 56.707031 L 318.292969 56.707031 L 318.292969 318.292969 L 56.707031 318.292969 Z M 56.707031 56.707031 " clip-rule="nonzero"/></clipPath><clipPath id="7a257ef4d4"><path d="M 187.5 56.707031 C 115.265625 56.707031 56.707031 115.265625 56.707031 187.5 C 56.707031 259.734375 115.265625 318.292969 187.5 318.292969 C 259.734375 318.292969 318.292969 259.734375 318.292969 187.5 C 318.292969 115.265625 259.734375 56.707031 187.5 56.707031 Z M 187.5 56.707031 " clip-rule="nonzero"/></clipPath><clipPath id="2a6282bb05"><path d="M 96.550781 84.628906 L 278.800781 84.628906 L 278.800781 209.128906 L 96.550781 209.128906 Z M 96.550781 84.628906 " clip-rule="nonzero"/></clipPath><clipPath id="35fa2011b1"><path d="M 155.699219 146.941406 L 219.296875 146.941406 L 219.296875 209.191406 L 155.699219 209.191406 Z M 155.699219 146.941406 " clip-rule="nonzero"/></clipPath></defs><g clip-path="url(#6b2a935b3d)"><g clip-path="url(#7a257ef4d4)"><path fill="#be1c2d" d="M 56.707031 56.707031 L 318.292969 56.707031 L 318.292969 318.292969 L 56.707031 318.292969 Z M 56.707031 56.707031 " fill-opacity="1" fill-rule="nonzero"/></g></g><g clip-path="url(#2a6282bb05)"><path fill="#ffffff" d="M 278.777344 164.183594 L 278.777344 187.644531 C 278.777344 190.324219 276.613281 192.496094 273.933594 192.507812 C 273.917969 192.507812 273.90625 192.507812 273.890625 192.507812 L 258.019531 193.617188 C 257.675781 193.640625 257.386719 193.882812 257.300781 194.214844 C 255.976562 199.273438 254.125 204.109375 251.792969 208.671875 C 251.792969 208.675781 251.792969 208.675781 251.789062 208.679688 C 251.5625 209.113281 251 209.238281 250.609375 208.945312 L 236.015625 197.832031 C 235.726562 197.613281 235.621094 197.21875 235.769531 196.882812 C 236.59375 194.988281 237.308594 193.03125 237.910156 191.027344 C 238.679688 188.460938 239.257812 185.8125 239.628906 183.101562 C 239.851562 181.472656 239.996094 179.824219 240.066406 178.15625 C 240.097656 177.414062 240.117188 176.664062 240.117188 175.910156 C 240.117188 174.46875 240.054688 173.039062 239.941406 171.625 C 238.703125 156.21875 230.824219 142.6875 219.167969 133.890625 C 210.359375 127.238281 199.386719 123.292969 187.5 123.292969 C 158.4375 123.292969 134.882812 146.851562 134.882812 175.910156 C 134.882812 183.367188 136.433594 190.457031 139.226562 196.882812 C 139.371094 197.21875 139.269531 197.613281 138.976562 197.832031 L 137.609375 198.875 L 124.394531 208.9375 C 124 209.234375 123.429688 209.109375 123.203125 208.671875 C 123.175781 208.617188 123.148438 208.566406 123.121094 208.511719 C 123.082031 208.441406 123.046875 208.371094 123.011719 208.296875 C 121.863281 206.011719 120.828125 203.652344 119.921875 201.234375 C 119.066406 198.945312 118.320312 196.605469 117.695312 194.214844 C 117.609375 193.882812 117.320312 193.640625 116.980469 193.617188 L 101.105469 192.507812 C 101.09375 192.507812 101.078125 192.507812 101.0625 192.507812 C 98.386719 192.496094 96.21875 190.324219 96.21875 187.644531 L 96.21875 164.183594 C 96.21875 161.503906 98.386719 159.328125 101.0625 159.320312 C 101.078125 159.320312 101.09375 159.316406 101.105469 159.316406 L 116.980469 158.207031 C 117.320312 158.183594 117.609375 157.945312 117.695312 157.609375 C 119.378906 151.179688 121.921875 145.101562 125.203125 139.5 C 125.375 139.203125 125.34375 138.832031 125.117188 138.570312 L 114.671875 126.558594 C 114.664062 126.546875 114.65625 126.539062 114.644531 126.527344 C 112.757812 124.625 112.765625 121.558594 114.660156 119.664062 L 131.25 103.074219 C 133.140625 101.179688 136.214844 101.175781 138.113281 103.058594 C 138.125 103.070312 138.132812 103.078125 138.144531 103.085938 L 150.160156 113.53125 C 150.414062 113.757812 150.792969 113.789062 151.089844 113.617188 C 156.6875 110.335938 162.765625 107.792969 169.195312 106.109375 C 169.527344 106.023438 169.769531 105.738281 169.792969 105.394531 L 170.902344 89.519531 C 170.902344 89.503906 170.902344 89.492188 170.902344 89.476562 C 170.914062 86.800781 173.085938 84.632812 175.765625 84.632812 L 199.230469 84.632812 C 201.910156 84.632812 204.082031 86.800781 204.09375 89.476562 C 204.09375 89.492188 204.09375 89.503906 204.097656 89.519531 L 205.203125 105.394531 C 205.226562 105.738281 205.46875 106.023438 205.800781 106.109375 C 212.230469 107.792969 218.308594 110.335938 223.910156 113.617188 C 224.207031 113.789062 224.578125 113.757812 224.839844 113.53125 L 226.867188 111.769531 L 236.851562 103.085938 C 236.863281 103.078125 236.875 103.070312 236.882812 103.058594 C 238.785156 101.175781 241.855469 101.179688 243.746094 103.074219 L 260.335938 119.664062 C 262.230469 121.558594 262.238281 124.625 260.351562 126.527344 C 260.339844 126.539062 260.332031 126.546875 260.324219 126.558594 L 249.878906 138.570312 C 249.652344 138.832031 249.621094 139.203125 249.792969 139.5 C 252.625 144.335938 254.914062 149.53125 256.566406 155.003906 C 256.828125 155.867188 257.070312 156.734375 257.300781 157.609375 C 257.386719 157.945312 257.675781 158.183594 258.019531 158.207031 L 260.367188 158.371094 L 262.332031 158.507812 L 268.214844 158.917969 L 273.890625 159.316406 C 273.90625 159.316406 273.917969 159.320312 273.933594 159.320312 C 276.613281 159.328125 278.777344 161.503906 278.777344 164.183594 " fill-opacity="1" fill-rule="nonzero"/></g><g clip-path="url(#35fa2011b1)"><path fill="#ffffff" d="M 211.460938 146.941406 L 212.257812 148.539062 L 203.871094 153.332031 C 203.871094 157.324219 205.46875 160.519531 209.0625 162.519531 L 217.453125 157.726562 L 217.851562 158.523438 C 215.855469 164.515625 211.859375 168.507812 203.871094 168.507812 C 201.875 168.507812 195.882812 174.5 192.6875 177.695312 L 186.300781 171.304688 C 189.496094 168.109375 196.683594 160.921875 196.683594 158.921875 C 196.683594 151.734375 198.679688 146.941406 211.460938 146.941406 Z M 161.535156 148.9375 L 169.523438 154.53125 L 170.324219 157.726562 L 193.488281 180.890625 L 196.683594 178.894531 L 198.28125 180.488281 C 198.28125 185.28125 203.871094 187.679688 206.269531 187.679688 L 219.449219 200.859375 C 219.449219 204.851562 215.054688 209.246094 211.0625 209.246094 L 197.882812 196.066406 C 197.882812 193.671875 195.484375 188.078125 190.691406 188.078125 L 189.09375 186.480469 L 191.09375 183.285156 L 167.925781 160.121094 L 164.730469 159.324219 L 159.140625 151.335938 Z M 181.507812 176.097656 L 187.898438 182.488281 C 183.105469 187.28125 176.714844 193.671875 176.714844 195.667969 C 176.714844 202.855469 174.71875 207.648438 161.9375 207.648438 L 161.136719 206.050781 L 169.523438 201.257812 C 169.523438 197.265625 167.925781 194.070312 164.332031 192.074219 L 155.945312 196.863281 L 155.546875 196.066406 C 157.542969 190.074219 161.535156 186.082031 169.523438 186.082031 C 171.523438 186.082031 176.714844 180.890625 181.507812 176.097656 Z M 181.507812 176.097656 " fill-opacity="1" fill-rule="nonzero"/></g><g fill="#ffffff" fill-opacity="1"><g transform="translate(103.019061, 251.797953)"><g><path d="M 15.671875 -27.890625 C 16.960938 -27.890625 18.035156 -27.816406 18.890625 -27.671875 C 19.753906 -27.523438 20.679688 -27.328125 21.671875 -27.078125 C 22.347656 -26.910156 22.753906 -26.8125 22.890625 -26.78125 L 21.984375 -20.8125 C 21.335938 -21.25 20.578125 -21.625 19.703125 -21.9375 C 18.828125 -22.257812 17.671875 -22.421875 16.234375 -22.421875 C 14.804688 -22.421875 13.523438 -22.097656 12.390625 -21.453125 C 11.253906 -20.816406 10.351562 -19.875 9.6875 -18.625 C 9.03125 -17.375 8.703125 -15.882812 8.703125 -14.15625 C 8.703125 -12.320312 9 -10.722656 9.59375 -9.359375 C 10.1875 -7.992188 11.066406 -6.929688 12.234375 -6.171875 C 13.410156 -5.421875 14.835938 -5.046875 16.515625 -5.046875 C 17.253906 -5.046875 18.03125 -5.132812 18.84375 -5.3125 C 19.65625 -5.488281 20.390625 -5.71875 21.046875 -6 C 21.703125 -6.28125 22.1875 -6.550781 22.5 -6.8125 L 22.53125 -1.15625 C 21.488281 -0.71875 20.445312 -0.363281 19.40625 -0.09375 C 18.375 0.164062 17.148438 0.296875 15.734375 0.296875 C 12.742188 0.296875 10.179688 -0.273438 8.046875 -1.421875 C 5.921875 -2.566406 4.304688 -4.191406 3.203125 -6.296875 C 2.097656 -8.410156 1.546875 -10.894531 1.546875 -13.75 C 1.546875 -16.769531 2.160156 -19.335938 3.390625 -21.453125 C 4.617188 -23.578125 6.300781 -25.179688 8.4375 -26.265625 C 10.570312 -27.347656 12.984375 -27.890625 15.671875 -27.890625 Z M 15.671875 -27.890625 "/></g></g></g><g fill="#ffffff" fill-opacity="1"><g transform="translate(126.699977, 251.797953)"><g><path d="M 25.96875 0 L 18.359375 0 C 18.210938 -0.175781 18.082031 -0.375 17.96875 -0.59375 C 17.851562 -0.820312 17.648438 -1.273438 17.359375 -1.953125 C 17.015625 -2.734375 16.644531 -3.726562 16.25 -4.9375 C 15.875 -6.03125 15.550781 -6.890625 15.28125 -7.515625 C 15.019531 -8.148438 14.703125 -8.6875 14.328125 -9.125 C 13.953125 -9.5625 13.515625 -9.796875 13.015625 -9.828125 C 12.328125 -9.773438 11.332031 -9.75 10.03125 -9.75 L 10.03125 0 L 3.140625 0 L 3.140625 -27.609375 L 5.515625 -27.609375 C 5.953125 -27.609375 6.859375 -27.640625 8.234375 -27.703125 C 8.429688 -27.722656 9.070312 -27.757812 10.15625 -27.8125 C 11.238281 -27.863281 12.457031 -27.890625 13.8125 -27.890625 C 15.632812 -27.890625 17.3125 -27.625 18.84375 -27.09375 C 20.375 -26.5625 21.628906 -25.644531 22.609375 -24.34375 C 23.597656 -23.039062 24.09375 -21.300781 24.09375 -19.125 C 24.09375 -15.195312 22.640625 -12.550781 19.734375 -11.1875 C 20.359375 -10.695312 20.90625 -10.03125 21.375 -9.1875 C 21.84375 -8.351562 22.398438 -7.195312 23.046875 -5.71875 C 23.421875 -4.84375 23.738281 -4.128906 24 -3.578125 C 24.257812 -3.023438 24.535156 -2.5 24.828125 -2 Z M 10.03125 -14.546875 C 10.375 -14.492188 10.90625 -14.457031 11.625 -14.4375 C 12.351562 -14.414062 12.953125 -14.410156 13.421875 -14.421875 C 14.765625 -14.421875 15.773438 -14.84375 16.453125 -15.6875 C 17.128906 -16.539062 17.46875 -17.644531 17.46875 -19 C 17.46875 -21.675781 15.96875 -23.015625 12.96875 -23.015625 C 11.789062 -23.015625 10.8125 -22.90625 10.03125 -22.6875 Z M 10.03125 -14.546875 "/></g></g></g><g fill="#ffffff" fill-opacity="1"><g transform="translate(153.354606, 251.797953)"><g><path d="M 17.96875 -5.15625 L 8.34375 -5.15625 L 6.890625 0 L -0.34375 0 L 9.265625 -27.78125 L 17.140625 -27.78125 L 26.828125 0 L 19.5 0 Z M 16.546875 -9.96875 L 13.984375 -18.625 L 13.078125 -22.203125 L 12.15625 -18.625 L 9.703125 -9.96875 Z M 16.546875 -9.96875 "/></g></g></g><g fill="#ffffff" fill-opacity="1"><g transform="translate(179.827911, 251.797953)"><g><path d="M 20.359375 -27.609375 L 20.359375 -22.453125 L 10.03125 -22.453125 L 10.03125 -15.875 L 17.875 -15.875 L 17.875 -10.734375 L 10.03125 -10.734375 L 10.03125 0 L 3.140625 0 L 3.140625 -27.609375 Z M 20.359375 -27.609375 "/></g></g></g><g fill="#ffffff" fill-opacity="1"><g transform="translate(200.915893, 251.797953)"><g><path d="M 0.5 -22.265625 L 0.5 -27.609375 L 22.21875 -27.609375 L 22.21875 -22.265625 L 14.859375 -22.265625 L 14.859375 0 L 7.890625 0 L 7.890625 -22.265625 Z M 0.5 -22.265625 "/></g></g></g><g fill="#ffffff" fill-opacity="1"><g transform="translate(223.635791, 251.797953)"><g><path d="M 20.578125 -27.609375 L 20.578125 -22.453125 L 9.96875 -22.453125 L 9.96875 -16.609375 L 18.15625 -16.609375 L 18.15625 -11.59375 L 9.96875 -11.59375 L 9.96875 -5.28125 L 21.671875 -5.28125 L 21.671875 0 L 3.140625 0 L 3.140625 -27.609375 Z M 20.578125 -27.609375 "/></g></g></g><g fill="#ffffff" fill-opacity="1"><g transform="translate(246.66394, 251.797953)"><g><path d="M 25.09375 0 L 17.453125 0 L 13.578125 -7.109375 L 12.421875 -9.484375 L 11.28125 -7.109375 L 7.546875 0 L 0.25 0 L 8.421875 -14.125 L 0.46875 -27.609375 L 8.0625 -27.625 L 11.859375 -20.671875 L 12.953125 -18.578125 L 14.015625 -20.671875 L 17.59375 -27.609375 L 24.84375 -27.609375 L 16.828125 -13.703125 Z M 25.09375 0 "/></g></g></g><g fill="#ffffff" fill-opacity="1"><g transform="translate(139.891826, 282.384034)"><g><path d="M 1.921875 -3.21875 C 2.398438 -2.957031 2.972656 -2.734375 3.640625 -2.546875 C 4.316406 -2.367188 5.019531 -2.28125 5.75 -2.28125 C 6.550781 -2.28125 7.113281 -2.398438 7.4375 -2.640625 C 7.769531 -2.890625 7.9375 -3.273438 7.9375 -3.796875 C 7.9375 -4.140625 7.851562 -4.429688 7.6875 -4.671875 C 7.519531 -4.921875 7.242188 -5.171875 6.859375 -5.421875 C 6.472656 -5.671875 5.867188 -5.992188 5.046875 -6.390625 C 3.953125 -6.929688 3.0625 -7.5625 2.375 -8.28125 C 1.695312 -9.007812 1.359375 -9.921875 1.359375 -11.015625 C 1.359375 -11.953125 1.585938 -12.71875 2.046875 -13.3125 C 2.503906 -13.90625 3.117188 -14.335938 3.890625 -14.609375 C 4.671875 -14.878906 5.554688 -15.015625 6.546875 -15.015625 C 7.390625 -15.015625 8.15625 -14.921875 8.84375 -14.734375 C 9.539062 -14.554688 10.050781 -14.363281 10.375 -14.15625 L 9.875 -11.75 C 9.425781 -12.03125 8.941406 -12.257812 8.421875 -12.4375 C 7.898438 -12.613281 7.300781 -12.703125 6.625 -12.703125 C 5.84375 -12.703125 5.273438 -12.566406 4.921875 -12.296875 C 4.578125 -12.035156 4.40625 -11.660156 4.40625 -11.171875 C 4.40625 -10.828125 4.488281 -10.53125 4.65625 -10.28125 C 4.832031 -10.03125 5.085938 -9.789062 5.421875 -9.5625 C 5.765625 -9.34375 6.28125 -9.050781 6.96875 -8.6875 C 7.90625 -8.195312 8.648438 -7.753906 9.203125 -7.359375 C 9.765625 -6.960938 10.210938 -6.488281 10.546875 -5.9375 C 10.890625 -5.394531 11.0625 -4.742188 11.0625 -3.984375 C 11.0625 -3.109375 10.847656 -2.359375 10.421875 -1.734375 C 9.992188 -1.117188 9.394531 -0.648438 8.625 -0.328125 C 7.851562 -0.00390625 6.960938 0.15625 5.953125 0.15625 C 5.347656 0.15625 4.734375 0.109375 4.109375 0.015625 C 3.492188 -0.078125 2.953125 -0.191406 2.484375 -0.328125 C 2.015625 -0.460938 1.679688 -0.59375 1.484375 -0.71875 Z M 1.921875 -3.21875 "/></g></g></g><g fill="#ffffff" fill-opacity="1"><g transform="translate(151.67433, 282.384034)"><g><path d="M 1.484375 -14.859375 L 4.5625 -14.859375 L 4.546875 -6.546875 C 4.546875 -5.421875 4.65625 -4.550781 4.875 -3.9375 C 5.09375 -3.320312 5.410156 -2.898438 5.828125 -2.671875 C 6.253906 -2.441406 6.804688 -2.328125 7.484375 -2.328125 C 8.148438 -2.328125 8.691406 -2.453125 9.109375 -2.703125 C 9.523438 -2.953125 9.835938 -3.382812 10.046875 -4 C 10.265625 -4.613281 10.375 -5.460938 10.375 -6.546875 L 10.375 -14.859375 L 13.4375 -14.859375 L 13.4375 -6.25 C 13.4375 -4.15625 12.925781 -2.5625 11.90625 -1.46875 C 10.894531 -0.382812 9.394531 0.15625 7.40625 0.15625 C 5.28125 0.15625 3.753906 -0.40625 2.828125 -1.53125 C 1.910156 -2.664062 1.457031 -4.28125 1.46875 -6.375 Z M 1.484375 -14.859375 "/></g></g></g><g fill="#ffffff" fill-opacity="1"><g transform="translate(166.56109, 282.384034)"><g><path d="M 2.78125 -14.859375 C 3.363281 -14.859375 4.144531 -14.882812 5.125 -14.9375 C 6.039062 -14.988281 6.71875 -15.015625 7.15625 -15.015625 C 8.925781 -15.015625 10.273438 -14.601562 11.203125 -13.78125 C 12.128906 -12.96875 12.59375 -11.671875 12.59375 -9.890625 C 12.59375 -8.753906 12.363281 -7.78125 11.90625 -6.96875 C 11.445312 -6.164062 10.769531 -5.550781 9.875 -5.125 C 8.988281 -4.707031 7.910156 -4.5 6.640625 -4.5 C 5.960938 -4.5 5.394531 -4.503906 4.9375 -4.515625 L 4.9375 0 L 1.84375 0 L 1.84375 -14.859375 Z M 6.5625 -6.859375 C 7.4375 -6.859375 8.144531 -7.085938 8.6875 -7.546875 C 9.226562 -8.015625 9.5 -8.8125 9.5 -9.9375 C 9.5 -10.875 9.242188 -11.585938 8.734375 -12.078125 C 8.234375 -12.578125 7.5 -12.804688 6.53125 -12.765625 C 6.15625 -12.753906 5.847656 -12.738281 5.609375 -12.71875 C 5.367188 -12.707031 5.144531 -12.675781 4.9375 -12.625 L 4.9375 -6.9375 C 5.363281 -6.882812 5.90625 -6.859375 6.5625 -6.859375 Z M 6.5625 -6.859375 "/></g></g></g><g fill="#ffffff" fill-opacity="1"><g transform="translate(179.827389, 282.384034)"><g><path d="M 2.78125 -14.859375 C 3.363281 -14.859375 4.144531 -14.882812 5.125 -14.9375 C 6.039062 -14.988281 6.71875 -15.015625 7.15625 -15.015625 C 8.925781 -15.015625 10.273438 -14.601562 11.203125 -13.78125 C 12.128906 -12.96875 12.59375 -11.671875 12.59375 -9.890625 C 12.59375 -8.753906 12.363281 -7.78125 11.90625 -6.96875 C 11.445312 -6.164062 10.769531 -5.550781 9.875 -5.125 C 8.988281 -4.707031 7.910156 -4.5 6.640625 -4.5 C 5.960938 -4.5 5.394531 -4.503906 4.9375 -4.515625 L 4.9375 0 L 1.84375 0 L 1.84375 -14.859375 Z M 6.5625 -6.859375 C 7.4375 -6.859375 8.144531 -7.085938 8.6875 -7.546875 C 9.226562 -8.015625 9.5 -8.8125 9.5 -9.9375 C 9.5 -10.875 9.242188 -11.585938 8.734375 -12.078125 C 8.234375 -12.578125 7.5 -12.804688 6.53125 -12.765625 C 6.15625 -12.753906 5.847656 -12.738281 5.609375 -12.71875 C 5.367188 -12.707031 5.144531 -12.675781 4.9375 -12.625 L 4.9375 -6.9375 C 5.363281 -6.882812 5.90625 -6.859375 6.5625 -6.859375 Z M 6.5625 -6.859375 "/></g></g></g><g fill="#ffffff" fill-opacity="1"><g transform="translate(193.093688, 282.384034)"><g><path d="M 4.9375 -14.859375 L 4.9375 -2.359375 L 10.296875 -2.359375 L 10.296875 0 L 1.84375 0 L 1.84375 -14.859375 Z M 4.9375 -14.859375 "/></g></g></g><g fill="#ffffff" fill-opacity="1"><g transform="translate(204.026915, 282.384034)"><g><path d="M 5.09375 -14.859375 L 5.09375 0 L 1.96875 0 L 1.96875 -14.859375 Z M 5.09375 -14.859375 "/></g></g></g><g fill="#ffffff" fill-opacity="1"><g transform="translate(211.074941, 282.384034)"><g><path d="M 10.90625 -14.859375 L 10.90625 -12.484375 L 4.9375 -12.484375 L 4.9375 -8.796875 L 9.515625 -8.796875 L 9.515625 -6.4375 L 4.9375 -6.4375 L 4.9375 -2.453125 L 11.53125 -2.453125 L 11.53125 0 L 1.84375 0 L 1.84375 -14.859375 Z M 10.90625 -14.859375 "/></g></g></g><g fill="#ffffff" fill-opacity="1"><g transform="translate(223.316251, 282.384034)"><g><path d="M 1.921875 -3.21875 C 2.398438 -2.957031 2.972656 -2.734375 3.640625 -2.546875 C 4.316406 -2.367188 5.019531 -2.28125 5.75 -2.28125 C 6.550781 -2.28125 7.113281 -2.398438 7.4375 -2.640625 C 7.769531 -2.890625 7.9375 -3.273438 7.9375 -3.796875 C 7.9375 -4.140625 7.851562 -4.429688 7.6875 -4.671875 C 7.519531 -4.921875 7.242188 -5.171875 6.859375 -5.421875 C 6.472656 -5.671875 5.867188 -5.992188 5.046875 -6.390625 C 3.953125 -6.929688 3.0625 -7.5625 2.375 -8.28125 C 1.695312 -9.007812 1.359375 -9.921875 1.359375 -11.015625 C 1.359375 -11.953125 1.585938 -12.71875 2.046875 -13.3125 C 2.503906 -13.90625 3.117188 -14.335938 3.890625 -14.609375 C 4.671875 -14.878906 5.554688 -15.015625 6.546875 -15.015625 C 7.390625 -15.015625 8.15625 -14.921875 8.84375 -14.734375 C 9.539062 -14.554688 10.050781 -14.363281 10.375 -14.15625 L 9.875 -11.75 C 9.425781 -12.03125 8.941406 -12.257812 8.421875 -12.4375 C 7.898438 -12.613281 7.300781 -12.703125 6.625 -12.703125 C 5.84375 -12.703125 5.273438 -12.566406 4.921875 -12.296875 C 4.578125 -12.035156 4.40625 -11.660156 4.40625 -11.171875 C 4.40625 -10.828125 4.488281 -10.53125 4.65625 -10.28125 C 4.832031 -10.03125 5.085938 -9.789062 5.421875 -9.5625 C 5.765625 -9.34375 6.28125 -9.050781 6.96875 -8.6875 C 7.90625 -8.195312 8.648438 -7.753906 9.203125 -7.359375 C 9.765625 -6.960938 10.210938 -6.488281 10.546875 -5.9375 C 10.890625 -5.394531 11.0625 -4.742188 11.0625 -3.984375 C 11.0625 -3.109375 10.847656 -2.359375 10.421875 -1.734375 C 9.992188 -1.117188 9.394531 -0.648438 8.625 -0.328125 C 7.851562 -0.00390625 6.960938 0.15625 5.953125 0.15625 C 5.347656 0.15625 4.734375 0.109375 4.109375 0.015625 C 3.492188 -0.078125 2.953125 -0.191406 2.484375 -0.328125 C 2.015625 -0.460938 1.679688 -0.59375 1.484375 -0.71875 Z M 1.921875 -3.21875 "/></g></g></g></svg>