<svg xmlns="http://www.w3.org/2000/svg" xmlns:xlink="http://www.w3.org/1999/xlink" width="500" zoomAndPan="magnify" viewBox="0 0 375 374.999991" height="500" preserveAspectRatio="xMidYMid meet" version="1.0"><defs><clipPath id="f7df4392f7"><path d="M 42.78125 68.015625 L 332.28125 68.015625 L 332.28125 265.265625 L 42.78125 265.265625 Z M 42.78125 68.015625 " clip-rule="nonzero"/></clipPath><clipPath id="17a958cef6"><path d="M 136.921875 166.824219 L 238.078125 166.824219 L 238.078125 265.824219 L 136.921875 265.824219 Z M 136.921875 166.824219 " clip-rule="nonzero"/></clipPath></defs><g clip-path="url(#f7df4392f7)"><path fill="#be1c2d" d="M 332.242188 194.171875 L 332.242188 231.371094 C 332.242188 235.621094 328.808594 239.066406 324.5625 239.085938 C 324.539062 239.085938 324.515625 239.085938 324.496094 239.089844 L 299.324219 240.847656 C 298.777344 240.886719 298.324219 241.265625 298.183594 241.792969 C 296.089844 249.8125 293.148438 257.484375 289.453125 264.71875 C 289.453125 264.722656 289.449219 264.726562 289.445312 264.730469 C 289.089844 265.421875 288.195312 265.621094 287.578125 265.148438 L 264.4375 247.53125 C 263.972656 247.179688 263.808594 246.558594 264.039062 246.023438 C 265.351562 243.019531 266.484375 239.917969 267.4375 236.738281 C 268.65625 232.671875 269.574219 228.472656 270.160156 224.167969 C 270.511719 221.589844 270.746094 218.976562 270.859375 216.328125 C 270.910156 215.148438 270.933594 213.960938 270.933594 212.769531 C 270.933594 210.480469 270.839844 208.214844 270.660156 205.972656 C 268.691406 181.539062 256.199219 160.082031 237.71875 146.132812 C 223.746094 135.585938 206.351562 129.332031 187.496094 129.332031 C 141.410156 129.332031 104.058594 166.6875 104.058594 212.769531 C 104.058594 224.59375 106.515625 235.835938 110.949219 246.027344 C 111.179688 246.558594 111.015625 247.179688 110.554688 247.53125 L 108.382812 249.1875 L 87.429688 265.140625 C 86.804688 265.613281 85.902344 265.410156 85.539062 264.71875 C 85.496094 264.632812 85.453125 264.550781 85.410156 264.464844 C 85.347656 264.351562 85.292969 264.238281 85.238281 264.125 C 83.410156 260.5 81.773438 256.761719 80.335938 252.925781 C 78.980469 249.296875 77.796875 245.585938 76.808594 241.792969 C 76.671875 241.265625 76.210938 240.886719 75.667969 240.847656 L 50.496094 239.089844 C 50.476562 239.085938 50.453125 239.085938 50.429688 239.085938 C 46.1875 239.066406 42.75 235.621094 42.75 231.371094 L 42.75 194.171875 C 42.75 189.921875 46.1875 186.472656 50.429688 186.457031 C 50.453125 186.457031 50.476562 186.453125 50.496094 186.453125 L 75.667969 184.695312 C 76.210938 184.65625 76.671875 184.277344 76.808594 183.746094 C 79.472656 173.550781 83.507812 163.910156 88.710938 155.03125 C 88.984375 154.558594 88.933594 153.96875 88.578125 153.558594 L 72.011719 134.503906 C 71.996094 134.488281 71.984375 134.472656 71.964844 134.457031 C 68.976562 131.441406 68.988281 126.578125 71.992188 123.570312 L 98.296875 97.265625 C 101.300781 94.261719 106.171875 94.253906 109.183594 97.242188 C 109.199219 97.257812 109.214844 97.273438 109.234375 97.285156 L 128.285156 113.851562 C 128.691406 114.207031 129.285156 114.257812 129.757812 113.984375 C 138.636719 108.785156 148.277344 104.746094 158.472656 102.082031 C 159 101.941406 159.382812 101.488281 159.417969 100.945312 L 161.175781 75.769531 C 161.179688 75.75 161.179688 75.726562 161.179688 75.703125 C 161.199219 71.457031 164.644531 68.023438 168.894531 68.023438 L 206.097656 68.023438 C 210.347656 68.023438 213.792969 71.457031 213.8125 75.703125 C 213.8125 75.726562 213.8125 75.75 213.816406 75.769531 L 215.574219 100.945312 C 215.609375 101.488281 215.992188 101.941406 216.519531 102.082031 C 226.71875 104.746094 236.355469 108.785156 245.238281 113.984375 C 245.707031 114.257812 246.296875 114.207031 246.707031 113.851562 L 249.921875 111.058594 L 265.761719 97.285156 C 265.777344 97.273438 265.792969 97.257812 265.808594 97.242188 C 268.820312 94.253906 273.691406 94.261719 276.695312 97.265625 L 303 123.570312 C 306.003906 126.578125 306.015625 131.441406 303.027344 134.457031 C 303.007812 134.472656 302.996094 134.488281 302.980469 134.503906 L 286.414062 153.558594 C 286.058594 153.96875 286.007812 154.558594 286.28125 155.03125 C 290.773438 162.699219 294.398438 170.9375 297.019531 179.613281 C 297.433594 180.984375 297.824219 182.359375 298.183594 183.746094 C 298.324219 184.277344 298.78125 184.65625 299.324219 184.695312 L 303.050781 184.957031 L 306.167969 185.171875 L 315.496094 185.824219 L 324.496094 186.453125 C 324.515625 186.453125 324.539062 186.457031 324.5625 186.457031 C 328.808594 186.472656 332.242188 189.921875 332.242188 194.171875 " fill-opacity="1" fill-rule="nonzero"/></g><g clip-path="url(#17a958cef6)"><path fill="#be1c2d" d="M 225.5 166.824219 L 226.765625 169.359375 L 213.464844 176.957031 C 213.464844 183.292969 216 188.359375 221.699219 191.523438 L 235 183.925781 L 235.632812 185.191406 C 232.46875 194.691406 226.132812 201.023438 213.464844 201.023438 C 210.300781 201.023438 200.800781 210.523438 195.734375 215.589844 L 185.601562 205.457031 C 190.667969 200.390625 202.066406 188.992188 202.066406 185.824219 C 202.066406 174.425781 205.234375 166.824219 225.5 166.824219 Z M 146.332031 169.992188 L 159 178.859375 L 160.265625 183.925781 L 197 220.660156 L 202.066406 217.492188 L 204.601562 220.023438 C 204.601562 227.625 213.464844 231.425781 217.265625 231.425781 L 238.167969 252.324219 C 238.167969 258.660156 231.199219 265.625 224.867188 265.625 L 203.964844 244.726562 C 203.964844 240.925781 200.167969 232.058594 192.566406 232.058594 L 190.03125 229.523438 L 193.199219 224.457031 L 156.464844 187.726562 L 151.398438 186.457031 L 142.53125 173.792969 Z M 178 213.058594 L 188.132812 223.191406 C 180.53125 230.792969 170.398438 240.925781 170.398438 244.09375 C 170.398438 255.492188 167.234375 263.09375 146.964844 263.09375 L 145.699219 260.558594 L 159 252.957031 C 159 246.625 156.464844 241.558594 150.765625 238.390625 L 137.464844 245.992188 L 136.832031 244.726562 C 140 235.226562 146.332031 228.890625 159 228.890625 C 162.167969 228.890625 170.398438 220.660156 178 213.058594 Z M 178 213.058594 " fill-opacity="1" fill-rule="nonzero"/></g></svg>